<svg xmlns="http://www.w3.org/2000/svg" width="40" height="40" viewBox="0 0 40 40"><defs><style>.a{fill:#fff;}</style></defs><path class="a" d="M20,0c-5.433,0-6.112.025-8.245.12A14.748,14.748,0,0,0,6.9,1.05,9.794,9.794,0,0,0,3.357,3.357,9.758,9.758,0,0,0,1.05,6.9a14.7,14.7,0,0,0-.93,4.855C.02,13.888,0,14.567,0,20s.025,6.112.12,8.245A14.757,14.757,0,0,0,1.05,33.1a9.808,9.808,0,0,0,2.307,3.543A9.78,9.78,0,0,0,6.9,38.95a14.766,14.766,0,0,0,4.855.93c2.133.1,2.812.12,8.245.12s6.112-.025,8.245-.12a14.8,14.8,0,0,0,4.855-.93,10.221,10.221,0,0,0,5.85-5.85,14.757,14.757,0,0,0,.93-4.855c.1-2.133.12-2.812.12-8.245s-.025-6.112-.12-8.245A14.791,14.791,0,0,0,38.95,6.9a9.816,9.816,0,0,0-2.307-3.543A9.745,9.745,0,0,0,33.1,1.05,14.714,14.714,0,0,0,28.245.12C26.112.02,25.433,0,20,0Zm0,3.6c5.338,0,5.975.027,8.083.118a11.019,11.019,0,0,1,3.712.692,6.582,6.582,0,0,1,3.8,3.8,11.043,11.043,0,0,1,.688,3.712c.095,2.11.117,2.743.117,8.083s-.025,5.975-.123,8.083a11.255,11.255,0,0,1-.7,3.712,6.35,6.35,0,0,1-1.5,2.3,6.24,6.24,0,0,1-2.3,1.493,11.124,11.124,0,0,1-3.725.688c-2.123.095-2.748.117-8.1.117s-5.977-.025-8.1-.123a11.341,11.341,0,0,1-3.727-.7,6.194,6.194,0,0,1-2.3-1.5,6.073,6.073,0,0,1-1.5-2.3,11.35,11.35,0,0,1-.7-3.725c-.075-2.1-.1-2.748-.1-8.073s.027-5.977.1-8.1a11.337,11.337,0,0,1,.7-3.723,5.929,5.929,0,0,1,1.5-2.3,5.916,5.916,0,0,1,2.3-1.5,11.07,11.07,0,0,1,3.7-.7c2.125-.075,2.75-.1,8.1-.1L20,3.6Zm0,6.13A10.27,10.27,0,1,0,30.27,20,10.269,10.269,0,0,0,20,9.73Zm0,16.937A6.667,6.667,0,1,1,26.667,20,6.665,6.665,0,0,1,20,26.667ZM33.077,9.325a2.4,2.4,0,1,1-2.4-2.4A2.4,2.4,0,0,1,33.077,9.325Z" transform="translate(0)"/></svg>